<svg width="15" height="12" viewBox="0 0 15 12" fill="none" xmlns="http://www.w3.org/2000/svg">
<path d="M13.8748 0.542385H1.12475C0.995667 0.542789 0.869135 0.578393 0.758777 0.645361C0.648418 0.71233 0.558414 0.808127 0.49845 0.922443C0.438487 1.03676 0.410836 1.16527 0.418474 1.29413C0.426112 1.42299 0.468749 1.54733 0.541797 1.65376L6.9168 10.8621C7.18101 11.2439 7.81709 11.2439 8.08201 10.8621L14.457 1.65376C14.5308 1.54755 14.5741 1.42315 14.5821 1.29407C14.5902 1.165 14.5627 1.03618 14.5027 0.921621C14.4427 0.807063 14.3524 0.711143 14.2417 0.644283C14.131 0.577423 14.0041 0.542182 13.8748 0.542385ZM7.49976 9.21451L2.47626 1.95905H12.5233L7.49976 9.21451Z" fill="#F8F8F8"/>
</svg>
