<svg width="15" height="12" viewBox="0 0 15 12" fill="none" xmlns="http://www.w3.org/2000/svg">
<path d="M1.12524 11.4576H13.8752C14.0043 11.4572 14.1309 11.4216 14.2412 11.3546C14.3516 11.2877 14.4416 11.1919 14.5015 11.0776C14.5615 10.9632 14.5892 10.8347 14.5815 10.7059C14.5739 10.577 14.5313 10.4527 14.4582 10.3462L8.0832 1.13791C7.81899 0.756115 7.18291 0.756115 6.91799 1.13791L0.542994 10.3462C0.469203 10.4524 0.42593 10.5769 0.417877 10.7059C0.409824 10.835 0.437299 10.9638 0.497316 11.0784C0.557333 11.1929 0.647597 11.2889 0.758302 11.3557C0.869006 11.4226 0.995916 11.4578 1.12524 11.4576Z" fill="#F8F8F8"/>
</svg>
